<?xml version="1.0" encoding="UTF-8"?>
<svg width="82px" height="31px" viewBox="0 0 82 31" version="1.1" xmlns="http://www.w3.org/2000/svg" xmlns:xlink="http://www.w3.org/1999/xlink">
    <!-- Generator: sketchtool 53.2 (72643) - https://sketchapp.com -->
    <title>3CF4B7B7-41FD-4E62-B092-B0D23A35D067@2x</title>
    <desc>Created with sketchtool.</desc>
    <g id="Page-4" stroke="none" stroke-width="1" fill="none" fill-rule="evenodd">
        <g id="home_desktop_hippo" transform="translate(-90.000000, -56.000000)" fill="#02DE82">
            <g id="Group-6" transform="translate(-40.000000, -156.000000)">
                <g id="menu" transform="translate(130.000000, 212.000000)">
                    <path d="M0,24.2860031 L4.85915589,24.2860031 L4.85915589,16.4799371 C4.85915589,13.5895754 6.27559564,12.271849 8.10929204,12.271849 C9.84809394,12.271849 10.7160994,13.6216131 10.7160994,15.8377893 L10.7160994,24.2860031 L15.5766508,24.2860031 L15.5766508,15.002022 C15.5766508,10.7939339 13.2908101,7.87153449 9.3331518,7.87153449 C7.24128659,7.87153449 5.63226685,8.76998427 4.85915589,9.86205347 L4.85915589,0.193619411 L0,0.193619411 L0,24.2860031 Z M21.7866576,6.03981128 C23.4933628,6.03981128 24.8442138,4.69004718 24.8442138,3.01990564 C24.8442138,1.3497641 23.4933628,0 21.7866576,0 C20.1455412,0 18.7625936,1.3497641 18.7625936,3.01990564 C18.7625936,4.69004718 20.1455412,6.03981128 21.7866576,6.03981128 L21.7866576,6.03981128 Z M19.3738257,24.2860031 L24.2329816,24.2860031 L24.2329816,8.22394967 L19.3738257,8.22394967 L19.3738257,24.2860031 Z M28.2241321,31 L33.083288,31 L33.083288,22.6799371 C33.7266167,23.5477421 35.3035398,24.6398113 37.4595984,24.6398113 C41.6754255,24.6398113 44.9269571,20.8161761 44.9269571,16.2556729 C44.9269571,11.6937767 41.6754255,7.87153449 37.4595984,7.87153449 C35.3035398,7.87153449 33.7266167,8.96360368 33.083288,9.83001573 L33.083288,8.22394967 L28.2241321,8.22394967 L28.2241321,31 Z M36.3655208,20.2381038 C34.1773656,20.2381038 32.6967325,18.5679623 32.6967325,16.2556729 C32.6967325,13.9419906 34.1773656,12.271849 36.3655208,12.271849 C38.553676,12.271849 40.0343091,13.9419906 40.0343091,16.2556729 C40.0343091,18.5679623 38.553676,20.2381038 36.3655208,20.2381038 L36.3655208,20.2381038 Z M47.147209,31 L52.0063649,31 L52.0063649,22.6799371 C52.6496937,23.5477421 54.2266167,24.6398113 56.3826753,24.6398113 C60.5985024,24.6398113 63.8486385,20.8161761 63.8486385,16.2556729 C63.8486385,11.6937767 60.5985024,7.87153449 56.3826753,7.87153449 C54.2266167,7.87153449 52.6496937,8.96360368 52.0063649,9.83001573 L52.0063649,8.22394967 L47.147209,8.22394967 L47.147209,31 Z M55.2885977,20.2381038 C53.1004425,20.2381038 51.6198094,18.5679623 51.6198094,16.2556729 C51.6198094,13.9419906 53.1004425,12.271849 55.2885977,12.271849 C57.4767529,12.271849 58.957386,13.9419906 58.957386,16.2556729 C58.957386,18.5679623 57.4767529,20.2381038 55.2885977,20.2381038 L55.2885977,20.2381038 Z M73.5362491,24.6398113 C78.1707284,24.6398113 82,20.9777578 82,16.2556729 C82,11.533588 78.1707284,7.87153449 73.5362491,7.87153449 C68.9017699,7.87153449 65.0724983,11.533588 65.0724983,16.2556729 C65.0724983,20.9777578 68.9017699,24.6398113 73.5362491,24.6398113 L73.5362491,24.6398113 Z M73.5362491,20.1099528 C71.5085773,20.1099528 69.9637509,18.5359245 69.9637509,16.2556729 C69.9637509,13.9740283 71.5085773,12.4 73.5362491,12.4 C75.563921,12.4 77.1087474,13.9740283 77.1087474,16.2556729 C77.1087474,18.5359245 75.563921,20.1099528 73.5362491,20.1099528 L73.5362491,20.1099528 Z" id="hippo_logo"></path>
                </g>
            </g>
        </g>
    </g>
</svg>